<svg width="24" height="24" viewBox="0 0 24 24" fill="none" xmlns="http://www.w3.org/2000/svg">
<path d="M13.124 5.07812C14.3162 5.24616 15.4236 5.67768 16.3867 6.31055C16.4068 6.32371 16.4273 6.33626 16.4473 6.34961C16.5197 6.39816 16.5904 6.44917 16.6611 6.5C16.6975 6.5261 16.7345 6.55139 16.7705 6.57812C16.8241 6.61803 16.8761 6.65997 16.9287 6.70117C16.9802 6.74143 17.0325 6.78068 17.083 6.82227C17.2826 6.98667 17.4745 7.16009 17.6572 7.34277L17.9307 7.63086C18.047 7.75933 18.1574 7.89229 18.2646 8.02734C18.3995 8.19696 18.5285 8.37135 18.6494 8.55176C18.6628 8.57172 18.6753 8.59223 18.6885 8.6123C19.3803 9.66477 19.8314 10.8894 19.9609 12.209C19.9869 12.4707 20 12.7347 20 13C20 13.1347 19.996 13.2691 19.9893 13.4033C19.8806 15.5911 18.8937 17.5474 17.373 18.9268C17.2296 19.0568 17.0803 19.1792 16.9287 19.2979C16.8761 19.3391 16.8241 19.381 16.7705 19.4209C16.7345 19.4476 16.6975 19.4729 16.6611 19.499C16.5904 19.5499 16.5197 19.6009 16.4473 19.6494C16.4273 19.6628 16.4068 19.6753 16.3867 19.6885C15.2333 20.4465 13.8733 20.9156 12.4082 20.9893C12.2726 20.9962 12.1365 21 12 21C11.8632 21 11.7268 20.9962 11.5908 20.9893C10.1258 20.9154 8.76562 20.4466 7.6123 19.6885C7.59223 19.6753 7.57172 19.6628 7.55176 19.6494C7.47931 19.6009 7.40864 19.5499 7.33789 19.499C7.3015 19.4729 7.2645 19.4476 7.22852 19.4209C7.1749 19.381 7.12289 19.3391 7.07031 19.2979C6.91872 19.1792 6.76939 19.0568 6.62598 18.9268C6.33806 18.6655 6.0696 18.3833 5.82227 18.083C5.78068 18.0325 5.74143 17.9802 5.70117 17.9287C5.65997 17.8761 5.61803 17.8241 5.57812 17.7705C5.55139 17.7345 5.5261 17.6975 5.5 17.6611C5.44917 17.5904 5.39816 17.5197 5.34961 17.4473C5.33626 17.4273 5.32371 17.4068 5.31055 17.3867C4.55186 16.2321 4.08358 14.8701 4.01074 13.4033C4.00398 13.2693 4 13.1348 4 13C4 12.7347 4.01307 12.4707 4.03906 12.209C4.16857 10.8896 4.61888 9.66467 5.31055 8.6123C5.32372 8.59223 5.33626 8.57172 5.34961 8.55176C5.39816 8.47931 5.44917 8.40864 5.5 8.33789C5.5261 8.3015 5.55139 8.2645 5.57812 8.22852C5.61803 8.1749 5.65997 8.12288 5.70117 8.07031C5.89964 7.81674 6.11272 7.57283 6.34277 7.34277C6.52528 7.16026 6.71664 6.98653 6.91602 6.82227C6.96654 6.78068 7.01887 6.74143 7.07031 6.70117C7.12288 6.65997 7.1749 6.61803 7.22852 6.57812C7.2645 6.55139 7.3015 6.5261 7.33789 6.5C7.40864 6.44917 7.47931 6.39816 7.55176 6.34961C7.57172 6.33626 7.59223 6.32371 7.6123 6.31055C8.57533 5.67761 9.68286 5.24621 10.875 5.07812L11.2461 6.04297C9.83179 6.19609 8.49518 6.77581 7.41699 7.70996L10.2627 10.5557C9.98932 10.7503 9.75031 10.9893 9.55566 11.2627L6.70996 8.41699C5.72007 9.55951 5.12847 10.9922 5.02051 12.5H9.04199C9.0147 12.6626 9 12.8296 9 13C9 13.1704 9.0147 13.3374 9.04199 13.5H5.02051C5.12845 15.0076 5.72037 16.4396 6.70996 17.582L9.55566 14.7354C9.75037 15.0091 9.98908 15.2485 10.2627 15.4434L7.41699 18.2891C8.55959 19.2792 9.99195 19.8715 11.5 19.9795V15.958C11.6626 15.9853 11.8296 16 12 16C12.1704 16 12.3374 15.9853 12.5 15.958V19.9795C14.0078 19.8715 15.4395 19.2789 16.582 18.2891L13.7363 15.4434C14.0098 15.2486 14.2486 15.0098 14.4434 14.7363L17.2891 17.582C17.7801 17.0152 18.179 16.3736 18.4668 15.6787C18.7546 14.9838 18.9259 14.248 18.9795 13.5H14.958C14.9853 13.3374 15 13.1704 15 13C15 12.8296 14.9853 12.6626 14.958 12.5H18.9795C18.8715 10.992 18.2792 9.55958 17.2891 8.41699L14.4434 11.2627C14.2485 10.9891 14.0091 10.7504 13.7354 10.5557L16.582 7.70996C15.5037 6.77587 14.1673 6.19594 12.7529 6.04297L13.124 5.07812ZM12.5 10.041C12.3374 10.0137 12.1703 10 12 10C11.8297 10 11.6626 10.0137 11.5 10.041V6.70117L12 8L12.5 6.70117V10.041Z" fill="#E63EB6"/>
<circle cx="12" cy="13" r="3.5" stroke="#E63EB6"/>
<path fill-rule="evenodd" clip-rule="evenodd" d="M12.0007 10.4C12.0129 10.4085 12.7082 10.8975 12.822 11.5289C13.4068 11.3149 14.1631 11.6911 14.1804 11.6998C14.1804 11.6998 14.1214 12.5786 13.6443 12.9996C14.1216 13.4205 14.1804 14.3004 14.1804 14.3004C14.1704 14.3054 13.4097 14.6853 12.822 14.4703C12.7077 15.1076 11.9998 15.6002 11.9998 15.6002C11.9857 15.5904 11.2906 15.1013 11.1775 14.4703C10.5859 14.6864 9.81909 14.3004 9.81909 14.3004C9.81909 14.3004 9.87815 13.4206 10.3552 12.9996C9.87868 12.5784 9.82007 11.6998 9.82007 11.6998C9.83366 11.693 10.5913 11.3152 11.1775 11.5289C11.2921 10.8918 12.0007 10.4 12.0007 10.4ZM11.9998 11.9996C11.4477 11.9997 11 12.4476 10.9998 12.9996C10.9998 13.5518 11.4476 13.9995 11.9998 13.9996C12.552 13.9996 12.9998 13.5519 12.9998 12.9996C12.9995 12.4475 12.5519 11.9996 11.9998 11.9996Z" fill="#E63EB6"/>
<path d="M12.1793 7.63778C12.1058 7.78617 11.8942 7.78617 11.8207 7.63778L9.5448 3.03871C9.47901 2.90578 9.57573 2.75 9.72405 2.75L14.276 2.75C14.4243 2.75 14.521 2.90578 14.4552 3.03871L12.1793 7.63778Z" stroke="#E63EB6"/>
</svg>
